<?xml version="1.0" encoding="UTF-8"?>
<svg version="1.1" xmlns="http://www.w3.org/2000/svg" width="32" height="32">
<path d="M0 0 C2.97743485 2.32695922 3.49935441 4.29522265 4 8 C4.78375 8.12375 5.5675 8.2475 6.375 8.375 C9 9 9 9 11 11 C11.30078125 13.27734375 11.30078125 13.27734375 11.3125 15.9375 C11.32925781 16.81277344 11.34601562 17.68804688 11.36328125 18.58984375 C10.93115567 21.45674145 10.29526775 22.28526836 8 24 C7.01 24.33 6.02 24.66 5 25 C3.96708324 26.98320018 2.9662501 28.98347806 2 31 C-0.45382134 32.22691067 -2.19984103 32.20175931 -4.9375 32.25 C-5.81277344 32.27578125 -6.68804687 32.3015625 -7.58984375 32.328125 C-10 32 -10 32 -11.8046875 30.65234375 C-13.43993099 28.39186011 -13.22055871 26.72022409 -13 24 C-13.763125 24.061875 -14.52625 24.12375 -15.3125 24.1875 C-18 24 -18 24 -19.64453125 22.80078125 C-21.42722679 20.43241629 -21.40125032 18.94003586 -21.375 16 C-21.38273437 15.13375 -21.39046875 14.2675 -21.3984375 13.375 C-20.92744173 10.5674958 -20.27928589 9.66209209 -18 8 C-15.3125 7.8125 -15.3125 7.8125 -13 8 C-13.0825 7.236875 -13.165 6.47375 -13.25 5.6875 C-13 3 -13 3 -11.5625 1.1875 C-7.83016911 -0.54211675 -4.0446535 -0.75976917 0 0 Z " fill="#F8943F" transform="translate(21,0)"/>
<path d="M0 0 C1.62463842 -0.05395478 3.24978541 -0.09277195 4.875 -0.125 C6.23238281 -0.15980469 6.23238281 -0.15980469 7.6171875 -0.1953125 C10 0 10 0 12 2 C12.30078125 4.05859375 12.30078125 4.05859375 12.3125 6.4375 C12.32925781 7.21996094 12.34601562 8.00242187 12.36328125 8.80859375 C12 11 12 11 10.7734375 12.7421875 C8.55753503 14.31381877 7.00676354 14.49226351 4.3125 14.6875 C3.10013672 14.78611328 3.10013672 14.78611328 1.86328125 14.88671875 C1.24839844 14.92410156 0.63351562 14.96148437 0 15 C0 16.65 0 18.3 0 20 C5.94 20.99 5.94 20.99 12 22 C11.67 23.32 11.34 24.64 11 26 C11 25.34 11 24.68 11 24 C10.01 24 9.02 24 8 24 C8 24.99 8 25.98 8 27 C8.66 27.33 9.32 27.66 10 28 C9 29 9 29 5.125 29.25 C1.307617 29.18853945 1.307617 29.18853945 -0.9375 27.8125 C-2.24912987 25.57501375 -2.65447612 23.55687669 -3 21 C-4.98 20.67 -6.96 20.34 -9 20 C-10.29743778 16.10768667 -9.7290731 14.68367748 -8 11 C-6.02514795 9.6296945 -4.02613283 8.29327628 -2 7 C-1.04768403 4.87880872 -1.04768403 4.87880872 -1 3 C-0.01 3.33 0.98 3.66 2 4 C2 3.01 2 2.02 2 1 C1.34 0.67 0.68 0.34 0 0 Z " fill="#4D9BC9" transform="translate(11,2)"/>
<path d="M0 0 C2.97743485 2.32695922 3.49935441 4.29522265 4 8 C5.32 8.33 6.64 8.66 8 9 C6.35 9 4.7 9 3 9 C3 10.65 3 12.3 3 14 C1.02 14.99 1.02 14.99 -1 16 C-0.34 15.01 0.32 14.02 1 13 C1.27831472 10.74877503 1.27831472 10.74877503 1.1875 8.375 C1.18105469 7.57835937 1.17460937 6.78171875 1.16796875 5.9609375 C1.21182898 3.99710266 1.21182898 3.99710266 0 3 C-2.67058851 2.85884839 -5.32432238 2.95752893 -8 3 C-8 3.99 -8 4.98 -8 6 C-8.99 6 -9.98 6 -11 6 C-11.33 6.66 -11.66 7.32 -12 8 C-9.69 8 -7.38 8 -5 8 C-5 8.33 -5 8.66 -5 9 C-6.546875 9.12375 -6.546875 9.12375 -8.125 9.25 C-12.48956518 10.09475455 -14.74013073 10.97297853 -18 14 C-18.80437792 16.76769508 -18.90271615 19.0814846 -19 22 C-19.66 21.67 -20.32 21.34 -21 21 C-21.08121924 19.39667209 -21.13929134 17.79215974 -21.1875 16.1875 C-21.22230469 15.29417969 -21.25710937 14.40085937 -21.29296875 13.48046875 C-21 11 -21 11 -19.65625 9.1875 C-17.39235443 7.56432959 -15.71692729 7.7797086 -13 8 C-13.0825 7.236875 -13.165 6.47375 -13.25 5.6875 C-13 3 -13 3 -11.5625 1.1875 C-7.83016911 -0.54211675 -4.0446535 -0.75976917 0 0 Z " fill="#C9C8C9" transform="translate(21,0)"/>
<path d="M0 0 C0.99 0.66 1.98 1.32 3 2 C3.3984375 4.27734375 3.3984375 4.27734375 3.375 6.9375 C3.38273437 7.81277344 3.39046875 8.68804687 3.3984375 9.58984375 C2.92733476 12.43955344 2.2857518 13.28836895 0 15 C-0.99 15.33 -1.98 15.66 -3 16 C-4.03291676 17.98320018 -5.0337499 19.98347806 -6 22 C-8.45382134 23.22691067 -10.19984103 23.20175931 -12.9375 23.25 C-13.81277344 23.27578125 -14.68804687 23.3015625 -15.58984375 23.328125 C-18 23 -18 23 -19.8046875 21.65234375 C-21.43993099 19.39186011 -21.22055871 17.72022409 -21 15 C-22.65 15 -24.3 15 -26 15 C-26.33 14.34 -26.66 13.68 -27 13 C-24.03 13.495 -24.03 13.495 -21 14 C-20.67 12.68 -20.34 11.36 -20 10 C-19.92652344 10.93972656 -19.92652344 10.93972656 -19.8515625 11.8984375 C-19.77679687 12.71570312 -19.70203125 13.53296875 -19.625 14.375 C-19.55539063 15.18710937 -19.48578125 15.99921875 -19.4140625 16.8359375 C-19.17107412 19.20334191 -19.17107412 19.20334191 -17 21 C-14.31160615 21.26991906 -11.70858064 21.08737357 -9 21 C-9.33 19.68 -9.66 18.36 -10 17 C-9.01 17 -8.02 17 -7 17 C-6.67 16.34 -6.34 15.68 -6 15 C-8.31 15 -10.62 15 -13 15 C-13 14.67 -13 14.34 -13 14 C-11.453125 13.87625 -11.453125 13.87625 -9.875 13.75 C-5.67836985 12.937749 -3.42724656 11.47080566 0 9 C0.66 9 1.32 9 2 9 C1.34 6.03 0.68 3.06 0 0 Z " fill="#E3E8EC" transform="translate(29,9)"/>
<path d="M0 0 C0.99 0.495 0.99 0.495 2 1 C2 1.66 2 2.32 2 3 C7.94 3.99 7.94 3.99 14 5 C13.67 6.32 13.34 7.64 13 9 C13 8.34 13 7.68 13 7 C12.01 7 11.02 7 10 7 C10 7.99 10 8.98 10 10 C10.66 10.33 11.32 10.66 12 11 C10.12735324 12.87264676 7.50240053 12.23607378 5.0078125 12.328125 C3 12 3 12 1.25390625 10.77734375 C-0.36851794 8.47764591 -0.30861065 7.09804503 -0.1875 4.3125 C-0.16042969 3.50425781 -0.13335937 2.69601563 -0.10546875 1.86328125 C-0.07066406 1.24839844 -0.03585937 0.63351563 0 0 Z " fill="#767574" transform="translate(9,19)"/>
<path d="M0 0 C1.62463842 -0.05395478 3.24978541 -0.09277195 4.875 -0.125 C5.77992187 -0.14820312 6.68484375 -0.17140625 7.6171875 -0.1953125 C10 0 10 0 12 2 C12.1953125 4.1640625 12.1953125 4.1640625 12.125 6.625 C12.10695313 7.44226563 12.08890625 8.25953125 12.0703125 9.1015625 C12.03550781 10.04128906 12.03550781 10.04128906 12 11 C11.34 10.67 10.68 10.34 10 10 C10 9.34 10 8.68 10 8 C4.06 7.01 4.06 7.01 -2 6 C-1.67 5.01 -1.34 4.02 -1 3 C-0.01 3.33 0.98 3.66 2 4 C2 3.01 2 2.02 2 1 C1.34 0.67 0.68 0.34 0 0 Z " fill="#222323" transform="translate(11,2)"/>
<path d="M0 0 C1.51400391 0.01740234 1.51400391 0.01740234 3.05859375 0.03515625 C4.07050781 0.04417969 5.08242188 0.05320312 6.125 0.0625 C7.29869141 0.07990234 7.29869141 0.07990234 8.49609375 0.09765625 C7.91869892 3.1289791 7.75364173 3.89018704 5.24609375 5.91015625 C2.09745928 7.26979386 0.71339366 7.10880765 -2.50390625 6.09765625 C-2.88609392 4.44150968 -3.21785727 2.77308601 -3.50390625 1.09765625 C-2.50390625 0.09765625 -2.50390625 0.09765625 0 0 Z " fill="#FB8432" transform="translate(13.50390625,15.90234375)"/>
<path d="M0 0 C0.33 1.32 0.66 2.64 1 4 C-5.03076923 8.92307692 -5.03076923 8.92307692 -9.9375 9.3125 C-10.948125 9.209375 -11.95875 9.10625 -13 9 C-8.91266859 5.55131413 -4.56194093 2.76206846 0 0 Z " fill="#FE3F31" transform="translate(29,14)"/>
<path d="M0 0 C-3.60700972 4.23431576 -8.14586161 6.4692099 -13 9 C-12.46697267 5.2186414 -12.33355864 4.28701558 -9.3125 1.6875 C-5.81897751 -0.09221901 -3.85317399 -0.36696895 0 0 Z " fill="#5742AC" transform="translate(15,9)"/>
<path d="M0 0 C0.99 0.66 1.98 1.32 3 2 C3.328125 4.3125 3.328125 4.3125 3.25 7 C3.23453125 7.886875 3.2190625 8.77375 3.203125 9.6875 C3 12 3 12 2 14 C-0.64 14 -3.28 14 -6 14 C-3.21592961 10.91763635 -2.19174654 10.04793663 2 9 C1.34 6.03 0.68 3.06 0 0 Z " fill="#F7B9CD" transform="translate(29,9)"/>
<path d="M0 0 C-3.75 3.875 -3.75 3.875 -6 5 C-6.46523063 6.89533342 -6.46523063 6.89533342 -6.625 9.0625 C-6.74875 10.361875 -6.8725 11.66125 -7 13 C-7.66 12.67 -8.32 12.34 -9 12 C-9 8.7 -9 5.4 -9 2 C-5.23312136 0.11656068 -3.97041037 -0.22057835 0 0 Z " fill="#C198CC" transform="translate(9,9)"/>
<path d="M0 0 C4.29 0 8.58 0 13 0 C10.66666667 2.33333333 8.33333333 4.66666667 6 7 C5.01 6.67 4.02 6.34 3 6 C3 5.01 3 4.02 3 3 C3.99 3 4.98 3 6 3 C6.33 2.34 6.66 1.68 7 1 C4.69 1 2.38 1 0 1 C0 0.67 0 0.34 0 0 Z " fill="#D5D1D3" transform="translate(16,23)"/>
<path d="M0 0 C1.23556641 0.01740234 1.23556641 0.01740234 2.49609375 0.03515625 C3.32238281 0.04417969 4.14867187 0.05320312 5 0.0625 C5.63808594 0.07410156 6.27617187 0.08570313 6.93359375 0.09765625 C4.01956113 2.04034466 1.07550799 3.56160929 -2.06640625 5.09765625 C-2.62890625 3.16015625 -2.62890625 3.16015625 -3.06640625 1.09765625 C-2.06640625 0.09765625 -2.06640625 0.09765625 0 0 Z " fill="#F3CE5C" transform="translate(13.06640625,15.90234375)"/>
<path d="M0 0 C0.66 1.32 1.32 2.64 2 4 C1 5 1 5 -2.0625 5.0625 C-3.5165625 5.0315625 -3.5165625 5.0315625 -5 5 C-3.35 3.35 -1.7 1.7 0 0 Z " fill="#068669" transform="translate(20,10)"/>
</svg>
